<svg width="40" height="40" viewBox="0 0 40 40" fill="none" xmlns="http://www.w3.org/2000/svg">
<path d="M19.9999 24.1666C22.7666 24.1666 24.9999 21.9333 24.9999 19.1666V9.16663C24.9999 6.39996 22.7666 4.16663 19.9999 4.16663C17.2333 4.16663 14.9999 6.39996 14.9999 9.16663V19.1666C14.9999 21.9333 17.2333 24.1666 19.9999 24.1666Z" fill="black"/>
<path d="M28.3333 19.1666C28.3333 23.7666 24.5999 27.5 19.9999 27.5C15.3999 27.5 11.6666 23.7666 11.6666 19.1666H8.33325C8.33325 25.05 12.6833 29.8833 18.3333 30.7V35.8333H21.6666V30.7C27.3166 29.8833 31.6666 25.05 31.6666 19.1666H28.3333Z" fill="black"/>
</svg>
